o board.001_Cube.001
v -13.499996 -0.100000 5.000009
v -13.999997 -0.100000 4.500009
v -13.597542 -0.100000 4.990401
v -13.691338 -0.100000 4.961948
v -13.777782 -0.100000 4.915744
v -13.853551 -0.100000 4.853562
v -13.915732 -0.100000 4.777794
v -13.961937 -0.100000 4.691351
v -13.990390 -0.100000 4.597554
v -14.000003 -0.100000 -4.499990
v -13.500004 -0.100000 -4.999991
v -13.990396 -0.100000 -4.597536
v -13.961943 -0.100000 -4.691332
v -13.915738 -0.100000 -4.777776
v -13.853557 -0.100000 -4.853544
v -13.777788 -0.100000 -4.915725
v -13.691345 -0.100000 -4.961931
v -13.597548 -0.100000 -4.990384
v 13.499998 -0.100000 -5.000008
v 13.999999 -0.100000 -4.500009
v 13.597544 -0.100000 -4.990401
v 13.691339 -0.100000 -4.961948
v 13.777784 -0.100000 -4.915743
v 13.853553 -0.100000 -4.853562
v 13.915734 -0.100000 -4.777794
v 13.961939 -0.100000 -4.691350
v 13.990392 -0.100000 -4.597554
v 13.999998 -0.100000 4.499992
v 13.499999 -0.100000 4.999993
v 13.990391 -0.100000 4.597538
v 13.961938 -0.100000 4.691334
v 13.915733 -0.100000 4.777778
v 13.853552 -0.100000 4.853546
v 13.777783 -0.100000 4.915727
v 13.691340 -0.100000 4.961933
v 13.597544 -0.100000 4.990386
v -14.000003 0.100000 4.500007
v -13.500003 0.100000 5.000006
v -13.990395 0.100000 4.597552
v -13.961942 0.100000 4.691349
v -13.915737 0.100000 4.777792
v -13.853556 0.100000 4.853560
v -13.777788 0.100000 4.915741
v -13.691343 0.100000 4.961946
v -13.597547 0.100000 4.990399
v -13.499994 0.100000 -4.999994
v -13.999994 0.100000 -4.499993
v -13.597539 0.100000 -4.990386
v -13.691335 0.100000 -4.961934
v -13.777778 0.100000 -4.915728
v -13.853546 0.100000 -4.853547
v -13.915728 0.100000 -4.777779
v -13.961933 0.100000 -4.691335
v -13.990386 0.100000 -4.597538
v 14.000002 0.100000 -4.500008
v 13.500001 0.100000 -5.000007
v 13.990395 0.100000 -4.597553
v 13.961942 0.100000 -4.691350
v 13.915737 0.100000 -4.777793
v 13.853556 0.100000 -4.853561
v 13.777787 0.100000 -4.915742
v 13.691342 0.100000 -4.961947
v 13.597546 0.100000 -4.990400
v 13.500003 0.100000 4.999991
v 14.000002 0.100000 4.499990
v 13.597548 0.100000 4.990384
v 13.691344 0.100000 4.961931
v 13.777787 0.100000 4.915725
v 13.853556 0.100000 4.853544
v 13.915737 0.100000 4.777776
v 13.961942 0.100000 4.691332
v 13.990395 0.100000 4.597536
v -13.597542 -0.100000 4.990401
v -13.499996 -0.100000 5.000009
v -13.500003 0.100000 5.000006
v -13.597547 0.100000 4.990399
v -13.691338 -0.100000 4.961948
v -13.691343 0.100000 4.961946
v -13.777782 -0.100000 4.915744
v -13.777788 0.100000 4.915741
v -13.853551 -0.100000 4.853562
v -13.853556 0.100000 4.853560
v -13.915732 -0.100000 4.777794
v -13.915737 0.100000 4.777792
v -13.961937 -0.100000 4.691351
v -13.961942 0.100000 4.691349
v -13.990390 -0.100000 4.597554
v -13.990395 0.100000 4.597552
v -13.999997 -0.100000 4.500009
v -14.000003 0.100000 4.500007
v -13.990396 -0.100000 -4.597536
v -14.000003 -0.100000 -4.499990
v -13.999994 0.100000 -4.499993
v -13.990386 0.100000 -4.597538
v -13.961943 -0.100000 -4.691332
v -13.961933 0.100000 -4.691335
v -13.915738 -0.100000 -4.777776
v -13.915728 0.100000 -4.777779
v -13.853557 -0.100000 -4.853544
v -13.853546 0.100000 -4.853547
v -13.777788 -0.100000 -4.915725
v -13.777778 0.100000 -4.915728
v -13.691345 -0.100000 -4.961931
v -13.691335 0.100000 -4.961934
v -13.597548 -0.100000 -4.990384
v -13.597539 0.100000 -4.990386
v -13.500004 -0.100000 -4.999991
v -13.499994 0.100000 -4.999994
v 13.597544 -0.100000 -4.990401
v 13.499998 -0.100000 -5.000008
v 13.500001 0.100000 -5.000007
v 13.597546 0.100000 -4.990400
v 13.691339 -0.100000 -4.961948
v 13.691342 0.100000 -4.961947
v 13.777784 -0.100000 -4.915743
v 13.777787 0.100000 -4.915742
v 13.853553 -0.100000 -4.853562
v 13.853556 0.100000 -4.853561
v 13.915734 -0.100000 -4.777794
v 13.915737 0.100000 -4.777793
v 13.961939 -0.100000 -4.691350
v 13.961942 0.100000 -4.691350
v 13.990392 -0.100000 -4.597554
v 13.990395 0.100000 -4.597553
v 13.999999 -0.100000 -4.500009
v 14.000002 0.100000 -4.500008
v 13.990391 -0.100000 4.597538
v 13.999998 -0.100000 4.499992
v 14.000002 0.100000 4.499990
v 13.990395 0.100000 4.597536
v 13.961938 -0.100000 4.691334
v 13.961942 0.100000 4.691332
v 13.915733 -0.100000 4.777778
v 13.915737 0.100000 4.777776
v 13.853552 -0.100000 4.853546
v 13.853556 0.100000 4.853544
v 13.777783 -0.100000 4.915727
v 13.777787 0.100000 4.915725
v 13.691340 -0.100000 4.961933
v 13.691344 0.100000 4.961931
v 13.597544 -0.100000 4.990386
v 13.597548 0.100000 4.990384
v 13.499999 -0.100000 4.999993
v 13.500003 0.100000 4.999991
vt 0.982143 0.999999
vt 0.017857 1.000000
vt 0.982143 0.000000
vt 0.017857 0.000000
vt 0.000000 0.050000
vt 0.000000 0.950000
vt 0.000001 0.975000
vt -0.000000 0.525000
vt 0.017857 0.500000
vt 1.000000 0.950000
vt 0.999999 0.050000
vt 0.985627 0.999679
vt 0.988976 0.998731
vt 0.992064 0.997190
vt 0.996513 0.990236
vt 0.998997 0.977778
vt 0.999547 0.969133
vt 0.999886 0.959754
vt 0.999885 0.040245
vt 0.999546 0.030866
vt 0.998996 0.022221
vt 0.996513 0.009763
vt 0.992063 0.002809
vt 0.988976 0.001269
vt 0.985626 0.000320
vt 0.014373 0.000321
vt 0.011024 0.001269
vt 0.007936 0.002809
vt 0.003487 0.009764
vt 0.001003 0.022222
vt 0.000453 0.030866
vt 0.000114 0.040246
vt 0.000115 0.959754
vt 0.000453 0.969134
vt 0.001003 0.977778
vt 0.003487 0.990237
vt 0.007936 0.997191
vt 0.011024 0.998731
vt 0.014374 0.999680
vt 0.982143 0.500000
vt 1.000000 0.025000
vt 1.000000 0.475000
vt 0.011023 0.500634
vt 0.000114 0.520123
vt 0.001004 0.988889
vt 0.000454 0.984567
vt 0.000115 0.979877
vt 0.003487 0.995118
vt 0.014374 0.999839
vt 0.011024 0.999365
vt 0.007937 0.998595
vt 0.988976 0.999365
vt 0.985626 0.999839
vt 0.996513 0.995118
vt 0.992064 0.998595
vt 0.999547 0.984567
vt 0.998997 0.988889
vt 0.999885 0.979877
vt 1.000000 0.974999
vt 1.000000 0.525000
vt 0.999885 0.520123
vt 0.992063 0.501404
vt 0.999547 0.515433
vt 0.998996 0.511110
vt 0.996513 0.504881
vt 0.985626 0.500160
vt 0.988976 0.500634
vt 0.014373 0.500160
vt 0.003487 0.504882
vt 0.007936 0.501404
vt 0.000453 0.515433
vt 0.001003 0.511111
vt 0.007937 0.004213
vt 0.011024 0.001903
vt 0.014374 0.000480
vt 0.001360 0.015433
vt 0.005231 0.007322
vt 0.992064 0.495787
vt 0.999657 0.479877
vt 0.000344 0.020123
vt 0.000000 0.025000
vt 0.000000 0.475000
vt 0.011024 0.498097
vt 0.000343 0.479877
vt 0.005230 0.492677
vt 0.003010 0.488889
vt 0.001359 0.484567
vt 0.007936 0.495787
vt 0.014373 0.499519
vt 0.988976 0.498097
vt 0.985627 0.499520
vt 0.998641 0.484567
vt 0.994770 0.492678
vt 0.996991 0.488889
vt 0.988976 0.001903
vt 0.999657 0.020123
vt 0.994770 0.007322
vt 0.996991 0.011111
vt 0.998641 0.015433
vt 0.992064 0.004213
vt 0.985627 0.000481
vt 0.003010 0.011111
vn -0.049100 0.000000 0.998800
vn 0.049100 0.000000 0.998800
vn -0.049100 -0.000000 -0.998800
vn 0.049100 0.000000 -0.998800
vn 0.998800 -0.000000 -0.049100
vn 0.998800 -0.000000 0.049100
vn 0.000000 1.000000 0.000000
vn -0.998800 -0.000000 0.049100
vn -0.998800 0.000000 -0.049100
vn -0.195100 0.000000 0.980800
vn -0.382700 -0.000000 0.923900
vn -0.555600 -0.000000 0.831500
vn -0.707100 -0.000000 0.707100
vn -0.831500 -0.000000 0.555600
vn -0.923900 -0.000000 0.382700
vn -0.980800 -0.000000 0.195100
vn -0.980800 0.000000 -0.195100
vn -0.923900 0.000000 -0.382700
vn -0.831500 0.000000 -0.555600
vn -0.707100 0.000000 -0.707100
vn -0.555600 0.000000 -0.831500
vn -0.382700 0.000000 -0.923900
vn -0.195100 -0.000000 -0.980800
vn 0.195100 0.000000 -0.980800
vn 0.382700 0.000000 -0.923900
vn 0.555600 -0.000000 -0.831500
vn 0.707100 -0.000000 -0.707100
vn 0.831500 -0.000000 -0.555600
vn 0.923900 -0.000000 -0.382700
vn 0.980800 -0.000000 -0.195100
vn 0.980800 -0.000000 0.195100
vn 0.923900 -0.000000 0.382700
vn 0.831500 -0.000000 0.555600
vn 0.707100 -0.000000 0.707100
vn 0.555600 -0.000000 0.831500
vn 0.382700 -0.000000 0.923900
vn 0.195100 0.000000 0.980800
vn 0.000000 -1.000000 0.000000
s 1
f 38/1/1 1/1/1 29/2/2
f 11/3/3 108/3/3 56/4/4
f 126/5/5 65/6/6 28/6/6
s 2
f 93/7/7 37/8/7 75/9/7
s 1
f 2/10/8 90/10/8 47/11/9
f 1/1/1 38/1/1 76/12/10
f 3/12/10 76/12/10 78/13/11
f 4/13/11 78/13/11 80/14/12
f 5/14/12 80/14/12 82/15/13
f 6/15/13 82/15/13 84/16/14
f 7/16/14 84/16/14 86/17/15
f 8/17/15 86/17/15 88/18/16
f 9/18/16 88/18/16 90/10/8
f 10/11/9 47/11/9 94/19/17
f 12/19/17 94/19/17 96/20/18
f 13/20/18 96/20/18 98/21/19
f 14/21/19 98/21/19 100/22/20
f 15/22/20 100/22/20 102/23/21
f 16/23/21 102/23/21 104/24/22
f 17/24/22 104/24/22 106/25/23
f 18/25/23 106/25/23 108/3/3
f 19/4/4 56/4/4 112/26/24
f 21/26/24 112/26/24 114/27/25
f 22/27/25 114/27/25 116/28/26
f 23/28/26 116/28/26 118/29/27
f 24/29/27 118/29/27 120/30/28
f 25/30/28 120/30/28 122/31/29
f 26/31/29 122/31/29 124/32/30
f 27/32/30 124/32/30 126/5/5
f 65/6/6 130/33/31 30/33/31
f 130/33/31 132/34/32 31/34/32
f 132/34/32 134/35/33 32/35/33
f 134/35/33 136/36/34 33/36/34
f 136/36/34 138/37/35 34/37/35
f 138/37/35 140/38/36 35/38/36
f 140/38/36 142/39/37 36/39/37
f 142/39/37 144/2/2 29/2/2
s 3
f 107/40/38 89/41/38 92/42/38
s 1
f 144/2/2 38/1/1 29/2/2
f 19/4/4 11/3/3 56/4/4
f 20/5/5 126/5/5 28/6/6
s 2
f 44/43/7 75/9/7 39/44/7
f 52/45/7 53/46/7 54/47/7
f 52/45/7 54/47/7 51/48/7
f 48/49/7 49/50/7 50/51/7
f 46/2/7 48/49/7 50/51/7
f 62/52/7 63/53/7 111/1/7
f 60/54/7 61/55/7 62/52/7
f 58/56/7 59/57/7 60/54/7
f 58/56/7 62/52/7 57/58/7
f 55/59/7 111/1/7 129/60/7
f 72/61/7 68/62/7 71/63/7
f 70/64/7 71/63/7 69/65/7
f 66/66/7 67/67/7 68/62/7
f 129/60/7 111/1/7 64/40/7
f 44/43/7 45/68/7 75/9/7
f 42/69/7 43/70/7 44/43/7
f 40/71/7 41/72/7 42/69/7
f 40/71/7 44/43/7 39/44/7
f 64/40/7 66/66/7 68/62/7
f 129/60/7 64/40/7 68/62/7
f 54/47/7 50/51/7 51/48/7
f 58/56/7 60/54/7 62/52/7
f 40/71/7 42/69/7 44/43/7
f 54/47/7 46/2/7 50/51/7
f 72/61/7 129/60/7 68/62/7
f 62/52/7 55/59/7 57/58/7
s 1
f 10/11/9 2/10/8 47/11/9
f 3/12/10 1/1/1 76/12/10
s 2
f 46/2/7 93/7/7 75/9/7
f 46/2/7 75/9/7 64/40/7
f 111/1/7 46/2/7 64/40/7
f 75/9/7 37/8/7 39/44/7
f 93/7/7 46/2/7 54/47/7
f 111/1/7 55/59/7 62/52/7
f 71/63/7 68/62/7 69/65/7
s 1
f 4/13/11 3/12/10 78/13/11
f 5/14/12 4/13/11 80/14/12
f 6/15/13 5/14/12 82/15/13
f 7/16/14 6/15/13 84/16/14
f 8/17/15 7/16/14 86/17/15
f 9/18/16 8/17/15 88/18/16
f 2/10/8 9/18/16 90/10/8
f 12/19/17 10/11/9 94/19/17
f 13/20/18 12/19/17 96/20/18
f 14/21/19 13/20/18 98/21/19
f 15/22/20 14/21/19 100/22/20
f 16/23/21 15/22/20 102/23/21
f 17/24/22 16/23/21 104/24/22
f 18/25/23 17/24/22 106/25/23
f 11/3/3 18/25/23 108/3/3
f 21/26/24 19/4/4 112/26/24
f 22/27/25 21/26/24 114/27/25
f 23/28/26 22/27/25 116/28/26
f 24/29/27 23/28/26 118/29/27
f 25/30/28 24/29/27 120/30/28
f 26/31/29 25/30/28 122/31/29
f 27/32/30 26/31/29 124/32/30
f 20/5/5 27/32/30 126/5/5
f 28/6/6 65/6/6 30/33/31
f 30/33/31 130/33/31 31/34/32
f 31/34/32 132/34/32 32/35/33
f 32/35/33 134/35/33 33/36/34
f 33/36/34 136/36/34 34/37/35
f 34/37/35 138/37/35 35/38/36
f 35/38/36 140/38/36 36/39/37
f 36/39/37 142/39/37 29/2/2
s 3
f 74/3/38 110/9/38 143/4/38
f 137/73/38 139/74/38 141/75/38
f 137/73/38 131/76/38 135/77/38
f 101/78/38 92/42/38 91/79/38
f 127/80/38 137/73/38 128/81/38
f 125/82/38 113/83/38 123/84/38
f 117/85/38 119/86/38 121/87/38
f 113/83/38 115/88/38 117/85/38
f 110/9/38 109/89/38 113/83/38
f 110/9/38 74/3/38 107/40/38
f 101/78/38 103/90/38 105/91/38
f 101/78/38 95/92/38 99/93/38
f 137/73/38 143/4/38 128/81/38
f 95/92/38 97/94/38 99/93/38
f 89/41/38 77/95/38 87/96/38
f 81/97/38 83/98/38 85/99/38
f 77/95/38 79/100/38 81/97/38
f 74/3/38 73/101/38 77/95/38
f 131/76/38 133/102/38 135/77/38
f 107/40/38 74/3/38 89/41/38
f 113/83/38 117/85/38 121/87/38
f 101/78/38 91/79/38 95/92/38
f 105/91/38 107/40/38 101/78/38
f 77/95/38 81/97/38 85/99/38
f 113/83/38 121/87/38 123/84/38
f 77/95/38 85/99/38 87/96/38
f 125/82/38 128/81/38 110/9/38
f 113/83/38 125/82/38 110/9/38
f 89/41/38 74/3/38 77/95/38
f 141/75/38 143/4/38 137/73/38
f 137/73/38 127/80/38 131/76/38
f 128/81/38 143/4/38 110/9/38
f 101/78/38 107/40/38 92/42/38